<svg viewBox="0 0 150 150" fill="none" xmlns="http://www.w3.org/2000/svg">
<path
    fill-rule="evenodd"
    clip-rule="evenodd"
    d="M75 0C33.5875 0 0 33.575 0 75C0 116.419 33.5875 150 75 150C116.419 150 150 116.419 150 75C150 33.575 116.419 0 75 0ZM95.15 111.694C96.325 112.525 97.8375 112.731 99.1875 112.225C100.531 111.712 101.525 110.556 101.825 109.156C104.994 94.2688 112.681 56.5813 115.562 43.0438C115.781 42.0188 115.419 40.9562 114.619 40.275C113.813 39.5937 112.7 39.4 111.713 39.7625C96.425 45.425 49.3438 63.0875 30.1 70.2062C28.8813 70.6625 28.0875 71.8312 28.125 73.125C28.1688 74.4125 29.0375 75.5312 30.2875 75.9062C38.9188 78.4875 50.2437 82.0813 50.2437 82.0813C50.2437 82.0813 55.5375 98.0687 58.2937 106.194C58.6437 107.219 59.4437 108.019 60.4937 108.294C61.55 108.569 62.6687 108.281 63.4562 107.537C67.8875 103.356 74.7375 96.8875 74.7375 96.8875C74.7375 96.8875 87.7625 106.431 95.15 111.694ZM55.0062 80.0563L61.1313 100.25L62.4937 87.4625C62.4937 87.4625 86.1375 66.1312 99.625 53.975C100.019 53.6187 100.069 53.0188 99.7437 52.6C99.4187 52.1813 98.8188 52.0812 98.375 52.3687C82.75 62.3437 55.0062 80.0563 55.0062 80.0563Z"
    fill="#000"
  />
</svg>
