<?xml version="1.0" standalone="no"?>
<!DOCTYPE svg PUBLIC "-//W3C//DTD SVG 20010904//EN"
 "http://www.w3.org/TR/2001/REC-SVG-20010904/DTD/svg10.dtd">
<svg version="1.0" xmlns="http://www.w3.org/2000/svg"
 width="500.000000pt" height="500.000000pt" viewBox="0 0 500.000000 500.000000"
 preserveAspectRatio="xMidYMid meet">
<metadata>
Created by potrace 1.14, written by Peter Selinger 2001-2017
</metadata>
<g transform="translate(0.000000,500.000000) scale(0.100000,-0.100000)"
fill="#000000" stroke="none">
<path d="M0 2500 l0 -2500 2500 0 2500 0 0 2500 0 2500 -2500 0 -2500 0 0
-2500z m1164 1972 c-2 -9 -47 -215 -99 -457 -52 -242 -98 -448 -103 -457 -4
-10 -12 -14 -18 -10 -8 5 21 152 92 477 56 259 103 471 103 472 1 1 7 0 15 -3
8 -3 12 -13 10 -22z m-490 -329 l-129 -123 129 -123 c107 -102 126 -124 114
-134 -12 -10 -38 12 -148 122 l-135 135 135 135 c110 110 136 132 148 122 12
-10 -7 -32 -114 -134z m786 -258 c-111 -111 -136 -132 -148 -122 -13 10 6 32
114 134 l128 123 -127 121 c-106 100 -126 124 -116 136 11 12 35 -8 148 -121
l136 -136 -135 -135z m1440 -586 c0 -54 -2 -61 -17 -56 -139 44 -372 97 -431
97 -13 0 -34 -11 -48 -25 l-25 -25 1 -332 c0 -183 1 -505 0 -715 l0 -383 -60
0 -60 0 0 265 0 264 -31 78 c-76 190 -71 173 -51 173 12 0 26 -22 47 -77 l30
-78 3 399 c2 434 2 438 -53 452 -41 10 -282 -40 -447 -93 -16 -5 -18 2 -18 56
l0 61 580 0 580 0 0 -61z m332 -309 c2 -203 7 -372 10 -376 4 -3 18 2 32 12
15 9 29 14 32 11 3 -3 -4 -8 -15 -12 -49 -15 -53 -43 -59 -417 l-5 -348 -59 0
-58 0 0 264 0 263 -23 -4 c-34 -7 -92 21 -113 53 -24 36 -24 122 0 158 21 32
79 60 113 53 l23 -4 0 358 0 359 59 0 58 0 5 -370z m-1767 -241 c12 -18 -3
-22 -35 -9 -39 16 -58 1 -67 -54 -5 -33 -3 -38 17 -43 l24 -6 -22 -8 c-21 -8
-22 -14 -22 -124 0 -96 -3 -115 -15 -115 -13 0 -15 22 -15 140 0 148 11 198
47 219 24 14 80 14 88 0z m-665 -15 c0 -12 -5 -13 -22 -7 -13 4 -41 8 -63 8
l-40 0 -3 -172 c-2 -145 -5 -173 -17 -173 -13 0 -15 28 -15 176 l0 177 -42 -6
c-24 -2 -51 -8 -60 -12 -13 -5 -18 -2 -18 9 0 14 18 16 140 16 120 0 140 -2
140 -16z m1340 -164 c0 -153 -2 -180 -15 -180 -13 0 -15 27 -15 180 0 153 2
180 15 180 13 0 15 -27 15 -180z m1900 75 c0 -58 3 -105 8 -105 4 0 35 23 70
51 35 28 70 49 80 47 12 -3 3 -12 -30 -31 -76 -45 -76 -45 -8 -136 48 -65 56
-81 41 -81 -12 0 -38 26 -71 70 -71 96 -90 92 -90 -16 0 -41 -4 -54 -15 -54
-13 0 -15 27 -15 180 0 153 2 180 15 180 12 0 15 -18 15 -105z m-2511 37 c-13
-21 -13 -21 -27 -1 -11 16 -11 23 -1 35 11 13 14 13 27 1 11 -12 12 -18 1 -35z
m-514 -45 c25 -19 3 -30 -30 -15 -21 9 -32 8 -60 -5 -41 -19 -55 -60 -55 -159
0 -54 -3 -68 -15 -68 -13 0 -15 21 -15 125 0 104 2 125 15 125 10 0 15 -10 15
-27 0 -24 1 -25 18 -10 23 21 74 47 93 47 8 0 23 -6 34 -13z m239 -26 c28 -29
31 -37 31 -97 0 -61 -2 -68 -32 -94 -18 -16 -48 -32 -67 -35 -44 -9 -102 18
-121 56 -20 37 -19 112 1 150 33 65 132 75 188 20z m492 15 l28 -23 34 23 c19
13 43 24 54 24 22 0 60 -18 70 -34 12 -17 10 -226 -2 -226 -6 0 -10 38 -11 93
-1 137 -16 168 -73 153 -56 -14 -66 -36 -66 -146 0 -82 -3 -100 -15 -100 -12
0 -15 17 -15 94 0 134 -16 167 -75 152 -53 -13 -65 -41 -65 -148 0 -80 -3 -98
-15 -98 -13 0 -15 21 -15 125 0 104 2 125 15 125 8 0 15 -7 15 -15 0 -12 6
-11 33 5 42 26 70 25 103 -4z m863 -10 c24 -24 26 -34 29 -126 3 -86 2 -100
-12 -100 -10 0 -16 8 -16 21 0 11 -3 19 -7 17 -87 -44 -104 -49 -139 -38 -41
14 -58 47 -44 85 10 26 65 65 90 64 13 0 13 -1 0 -6 -53 -19 -77 -84 -44 -117
38 -39 128 -1 139 58 12 59 4 71 -40 69 l-40 -2 39 12 c49 15 54 30 22 62 -36
36 -78 34 -109 -6 -24 -31 -52 -33 -40 -3 18 48 128 54 172 10z m279 -1 c20
-23 22 -37 22 -126 0 -81 -3 -99 -15 -99 -12 0 -15 18 -15 103 0 94 -2 105
-22 124 -13 12 -32 23 -43 26 -11 2 -4 3 15 1 22 -2 43 -13 58 -29z m530 0
c20 -23 22 -37 22 -126 0 -81 -3 -99 -15 -99 -12 0 -15 18 -15 98 0 110 -10
135 -63 152 -31 10 -31 10 8 5 27 -3 47 -13 63 -30z m258 14 c21 -18 17 -57
-10 -84 -24 -24 -82 -45 -123 -45 -27 0 -29 -19 -8 -59 26 -52 94 -60 145 -17
l25 21 -24 -27 c-31 -35 -77 -44 -124 -25 -90 38 -102 162 -21 226 15 12 31
21 37 21 5 0 -2 -9 -16 -20 -27 -21 -53 -83 -42 -100 16 -26 115 3 135 40 19
36 9 64 -30 78 l-35 13 38 -5 c22 -3 45 -10 53 -17z m243 6 c38 -19 41 -30 41
-146 0 -81 -3 -99 -15 -99 -12 0 -15 18 -15 105 0 94 -2 107 -21 126 -26 26
-80 21 -115 -12 -22 -21 -24 -30 -24 -121 0 -80 -3 -98 -15 -98 -13 0 -15 21
-15 125 0 104 2 125 15 125 8 0 15 -7 15 -15 0 -12 6 -12 37 5 45 24 74 25
112 5z m495 0 c43 -20 66 -63 66 -120 0 -58 -23 -100 -68 -121 -47 -22 -98
-12 -137 26 -27 28 -30 36 -30 94 0 55 4 68 25 91 43 47 89 56 144 30z m-2884
-120 c0 -104 -2 -125 -15 -125 -13 0 -15 21 -15 125 0 104 2 125 15 125 13 0
15 -21 15 -125z m1180 110 c0 -19 9 -19 34 0 35 26 37 16 4 -14 -32 -29 -33
-31 -36 -125 -3 -74 -7 -96 -18 -96 -11 0 -14 24 -14 125 0 104 2 125 15 125
8 0 15 -7 15 -15z m1352 -1196 c-1 -13 -46 -225 -99 -471 -85 -393 -99 -448
-115 -448 -14 0 -17 5 -13 23 3 12 48 220 100 462 53 242 98 446 100 453 8 22
30 7 27 -19z m-365 -195 c2 -6 -50 -63 -117 -127 -66 -64 -120 -120 -120 -124
0 -5 54 -62 120 -128 95 -94 117 -122 108 -133 -9 -11 -38 14 -150 125 l-138
138 133 133 c122 122 154 145 164 116z m671 -117 l132 -132 -138 -138 c-109
-109 -140 -135 -150 -125 -10 10 13 38 113 138 l125 126 -125 123 c-115 114
-134 141 -102 141 7 0 72 -60 145 -133z"/>
<path d="M3027 2620 c-32 -25 -50 -87 -41 -137 9 -50 55 -95 91 -91 l28 3 0
120 0 120 -26 3 c-14 2 -37 -6 -52 -18z"/>
<path d="M1113 2616 c-26 -23 -28 -29 -28 -101 0 -72 2 -78 28 -101 88 -76
184 48 133 171 -25 59 -84 73 -133 31z"/>
<path d="M4317 2629 c-70 -41 -58 -216 18 -235 66 -16 115 34 115 119 0 97
-66 155 -133 116z"/>
</g>
</svg>
