<svg
  xmlns="http://www.w3.org/2000/svg"
  xmlns:xlink="http://www.w3.org/1999/xlink"
  viewBox="0 0 100 100"
>
<g id="surface9186016">
<path
      style=" stroke:none;fill-rule:nonzero;fill:rgb(90.588236%,29.803923%,23.529412%);fill-opacity:1;"
      d="M 69.230469 3.125 C 69.105469 3.128906 69.003906 3.164062 68.9375 3.230469 L 57.332031 17.015625 L 54.960938 25.160156 C 53.351562 25.105469 51.691406 25.085938 49.988281 25.085938 C 37.921875 25.085938 28.125 26.363281 28.125 27.949219 C 28.125 31.730469 71.84375 31.730469 71.84375 27.949219 C 71.84375 26.777344 66.609375 25.785156 59.0625 25.316406 L 60.9375 18.617188 L 71.796875 5.554688 L 71.8125 5.535156 C 72.058594 5.28125 71.582031 4.523438 70.808594 3.855469 C 70.226562 3.355469 69.613281 3.109375 69.230469 3.125 Z M 54.070312 28.363281 L 54.027344 28.492188 C 54.007812 28.507812 54.011719 28.527344 54.011719 28.546875 C 54.011719 28.78125 54.957031 28.972656 56.109375 28.972656 C 57.261719 28.972656 58.214844 28.78125 58.214844 28.546875 L 58.253906 28.398438 C 58.554688 28.507812 58.722656 28.632812 58.722656 28.777344 C 58.722656 29.15625 57.550781 29.464844 56.089844 29.449219 C 54.671875 29.449219 53.496094 29.164062 53.496094 28.785156 C 53.496094 28.621094 53.730469 28.472656 54.070312 28.363281 Z M 71.601562 29.4375 C 65.816406 32.523438 34.21875 32.542969 28.410156 29.480469 L 30.980469 52.082031 C 32.097656 48.476562 34.917969 43.613281 38.550781 42.140625 C 39.742188 41.652344 40.949219 41.652344 42.082031 42.304688 C 43.066406 42.84375 43.902344 43.976562 43.996094 44.425781 C 44.222656 45.597656 43.617188 46.0625 43.144531 46.0625 C 42.578125 46.0625 42.140625 45.238281 41.859375 44.75 C 41.082031 43.433594 39.910156 43.378906 38.660156 44.246094 C 37.351562 45.144531 36.21875 46.65625 35.425781 47.972656 C 34.460938 49.558594 33.644531 51.304688 33.15625 53.050781 C 32.871094 54.0625 32.609375 55.679688 33.042969 56.632812 C 33.234375 57.03125 33.515625 57.28125 33.972656 57.28125 C 34.917969 57.28125 36.292969 56.09375 36.957031 55.460938 C 37.808594 54.652344 38.902344 53.390625 39.320312 52.582031 L 40.308594 49.792969 C 40.796875 48.566406 42.175781 48.78125 42.175781 49.792969 C 42.175781 51.628906 41.480469 52.242188 40.289062 56.042969 C 39.191406 59.554688 38.847656 60.691406 38.847656 60.691406 C 38.71875 61.195312 38.207031 62.042969 37.660156 62.042969 C 37.429688 62.042969 37.265625 61.964844 37.171875 61.824219 C 36.980469 61.570312 37 60.875 37.019531 60.691406 C 37.054688 60.117188 38.207031 56.691406 38.398438 56.152344 C 38.019531 56.550781 37.625 56.949219 37.1875 57.34375 C 36.167969 58.261719 34.523438 59.464844 33.125 59.464844 C 32.480469 59.464844 32.066406 59.300781 31.671875 59.03125 L 33.105469 73.371094 C 33.484375 74.269531 40.519531 76.453125 49.785156 76.453125 C 59.070312 76.453125 66.101562 74.253906 66.460938 73.371094 L 68.523438 56.335938 C 67.445312 57.273438 66.199219 58.425781 64.820312 59.003906 C 63.796875 59.417969 61.53125 59.683594 61.53125 57.972656 C 61.53125 57.035156 63.25 55.308594 64.25 54.101562 C 64.515625 53.796875 65.136719 53.039062 65.136719 52.644531 C 65.136719 52.121094 64.003906 52.242188 62.925781 53.089844 C 62.320312 53.574219 61.75 54.226562 61.28125 54.839844 C 60.46875 55.921875 60.035156 56.855469 59.675781 57.628906 C 58.503906 60.1875 58.898438 59.179688 57.953125 61.589844 C 57.007812 63.988281 57.160156 63.714844 56.96875 64.109375 C 56.800781 64.453125 56.554688 64.746094 56.214844 64.921875 C 55.855469 65.105469 55.363281 65.082031 55.058594 64.867188 C 54.890625 64.757812 54.808594 64.523438 54.808594 64.203125 C 54.808594 64.039062 54.832031 63.878906 54.871094 63.714844 C 55.15625 62.613281 56.347656 60.457031 57.707031 57.539062 C 58.011719 56.871094 57.894531 57.070312 57.855469 57.121094 C 56.683594 58.203125 55.792969 58.726562 55.132812 59.015625 C 54.035156 59.484375 52.675781 59.484375 52.394531 58.277344 C 52.375 58.203125 52.375 58.128906 52.355469 58.058594 C 50.125 59.714844 47.761719 60.164062 48.578125 56.597656 C 47.710938 58.074219 46.191406 59.285156 44.335938 59.285156 C 43.5625 59.285156 42.992188 59.035156 42.710938 58.367188 C 42.277344 57.378906 42.957031 55.679688 43.578125 54.078125 C 43.902344 53.269531 44.339844 52.292969 44.929688 51.160156 C 45.230469 50.546875 45.71875 50.183594 46.363281 50.347656 C 46.476562 50.386719 46.574219 50.421875 46.667969 50.476562 C 47.15625 50.800781 46.96875 51.28125 46.722656 51.769531 C 46.003906 53.121094 45.378906 54.113281 44.964844 55.519531 C 44.796875 56.113281 44.582031 57.140625 45.246094 57.140625 C 45.699219 57.140625 46.132812 56.996094 46.550781 56.707031 C 47.421875 56.09375 48.121094 55.179688 48.652344 54.277344 C 49.027344 53.632812 49.484375 52.785156 49.714844 52.0625 C 49.808594 51.757812 49.921875 51.46875 50.054688 51.195312 C 50.265625 50.746094 50.542969 50.28125 51.039062 50.28125 C 51.285156 50.28125 51.488281 50.371094 51.640625 50.550781 C 51.964844 50.945312 51.894531 51.355469 51.722656 51.789062 C 51.34375 52.796875 50.832031 53.699219 50.414062 54.796875 C 50.167969 55.429688 49.902344 56.238281 49.902344 56.902344 C 49.902344 57.515625 50.601562 57.371094 51.191406 57.117188 C 51.644531 56.917969 52.097656 56.617188 52.476562 56.3125 C 52.707031 55.429688 52.644531 55.625 57.472656 44.023438 C 57.71875 43.429688 58.171875 43.175781 58.625 43.175781 C 58.851562 43.175781 59.039062 43.253906 59.230469 43.378906 C 59.550781 43.613281 59.554688 44.109375 59.425781 44.488281 C 59.292969 44.832031 59.308594 44.722656 58.570312 46.378906 C 57.585938 48.558594 56.945312 50.128906 56.074219 52.128906 C 55.714844 52.957031 54.617188 55.535156 54.429688 56.144531 C 54.320312 56.542969 54.183594 57.191406 54.621094 57.191406 C 55.640625 57.191406 58.273438 54.828125 58.992188 54.125 C 59.027344 54.074219 59.085938 54.054688 59.160156 54.015625 C 59.273438 53.671875 59.386719 53.351562 59.480469 53.027344 C 59.746094 52.34375 59.992188 51.546875 60.484375 50.988281 C 60.636719 50.808594 60.804688 50.703125 60.992188 50.703125 C 61.519531 50.703125 61.785156 50.914062 61.785156 51.421875 C 61.785156 51.617188 61.65625 52.34375 61.578125 52.539062 C 61.84375 52.269531 62.125 52.003906 62.425781 51.734375 C 65.265625 49.230469 67.285156 50.507812 67.285156 51.769531 C 67.285156 53.101562 65.605469 54.953125 64.679688 55.980469 C 64.375 56.324219 63.75 56.953125 63.734375 57.136719 C 63.734375 57.371094 63.902344 57.464844 64.148438 57.464844 C 64.527344 57.464844 65.359375 56.832031 65.660156 56.617188 C 66.609375 55.914062 67.890625 54.832031 68.800781 54.078125 Z M 34.15625 75.097656 L 36.976562 79.675781 L 38.074219 93.976562 C 38.074219 95.578125 43.425781 96.875 50.007812 96.875 C 56.585938 96.875 61.9375 95.578125 61.9375 93.976562 L 62.8125 79.527344 L 65.472656 75.097656 C 57.980469 78.105469 41.949219 78.214844 34.15625 75.097656 Z M 34.15625 75.097656 "
    />
</g>
</svg>
